HIERARCHY
ROOT Hips
{
  OFFSET 267.745 86.9975 -272.335
  CHANNELS 6 Xposition Yposition Zposition Zrotation Xrotation Yrotation
  JOINT LeftUpLeg
  {
    OFFSET 8.64259 1.95398 -2.38835
    CHANNELS 3 Zrotation Xrotation Yrotation
    JOINT LeftLeg
    {
      OFFSET 43.7702 0 0
      CHANNELS 3 Zrotation Xrotation Yrotation
      JOINT LeftFoot
      {
        OFFSET 40.6238 0 0
        CHANNELS 3 Zrotation Xrotation Yrotation
        JOINT LeftToeBase
        {
          OFFSET 12.7242 0 0
          CHANNELS 3 Zrotation Xrotation Yrotation
          End Site
          {
            OFFSET 0 0 0
          }
        }
      }
    }
  }
  JOINT RightUpLeg
  {
    OFFSET -8.2249 1.95398 -2.59336
    CHANNELS 3 Zrotation Xrotation Yrotation
    JOINT RightLeg
    {
      OFFSET 43.5653 0 0
      CHANNELS 3 Zrotation Xrotation Yrotation
      JOINT RightFoot
      {
        OFFSET 40.6238 0 0
        CHANNELS 3 Zrotation Xrotation Yrotation
        JOINT RightToeBase
        {
          OFFSET 12.7242 0 0
          CHANNELS 3 Zrotation Xrotation Yrotation
          End Site
          {
            OFFSET 0 0 0
          }
        }
      }
    }
  }
  JOINT Spine
  {
    OFFSET 0.165834 0.87714 6.61349
    CHANNELS 3 Zrotation Xrotation Yrotation
    JOINT Spine1
    {
      OFFSET 7.38963 1.71661e-005 0
      CHANNELS 3 Zrotation Xrotation Yrotation
      JOINT Spine2
      {
        OFFSET 11.9445 1.14441e-005 0
        CHANNELS 3 Zrotation Xrotation Yrotation
        JOINT Spine3
        {
          OFFSET 14.7254 4.19617e-005 0
          CHANNELS 3 Zrotation Xrotation Yrotation
          JOINT Spine4
          {
            OFFSET 10.9679 0 0
            CHANNELS 3 Zrotation Xrotation Yrotation
            JOINT RightShoulder
            {
              OFFSET 2.46616 -1.6653 3.69651
              CHANNELS 3 Zrotation Xrotation Yrotation
              JOINT RightArm
              {
                OFFSET 13.0012 0 0
                CHANNELS 3 Zrotation Xrotation Yrotation
                JOINT RightForeArm
                {
                  OFFSET 28.7848 1.52588e-005 0
                  CHANNELS 3 Zrotation Xrotation Yrotation
                  JOINT RightHand
                  {
                    OFFSET 26.5688 1.52588e-005 0
                    CHANNELS 3 Zrotation Xrotation Yrotation
                    End Site
                    {
                      OFFSET 0 0 0
                    }
                  }
                }
              }
            }
            JOINT LeftShoulder
            {
              OFFSET 2.38034 -1.29275 -3.7523
              CHANNELS 3 Zrotation Xrotation Yrotation
              JOINT LeftArm
              {
                OFFSET 16.3182 6.10352e-005 0
                CHANNELS 3 Zrotation Xrotation Yrotation
                JOINT LeftForeArm
                {
                  OFFSET 27.0901 0 0
                  CHANNELS 3 Zrotation Xrotation Yrotation
                  JOINT LeftHand
                  {
                    OFFSET 24.5451 1.52588e-005 0
                    CHANNELS 3 Zrotation Xrotation Yrotation
                    End Site
                    {
                      OFFSET 0 0 0
                    }
                  }
                }
              }
            }
            JOINT Neck
            {
              OFFSET 5.0226 -0.0266342 0
              CHANNELS 3 Zrotation Xrotation Yrotation
              JOINT Head
              {
                OFFSET 6.69364 2.86102e-005 0
                CHANNELS 3 Zrotation Xrotation Yrotation
                End Site
                {
                  OFFSET 0 0 0
                }
              }
            }
          }
        }
      }
    }
  }
}
MOTION
Frames:	12
Frame Time:	0.0416667
-68.5078 83.2246 134.466 -69.5877 -58.4514 -88.6178 178.571 18.7146 89.8403 -45.6883 27.8356 4.65908 65.7078 6.48462 9.5267 73.1193 -0.968387 14.9202 173.09 56.7354 88.7244 -108.838 -20.2164 -3.24708 43.4076 12.1133 11.1969 34.1705 -1.47635 -0.339667 -0.759282 10.1651 -89.1897 6.5721 -1.17306 1.6651 -5.09918 -1.09863 1.71509 -27.6361 -1.61936 1.2356 -7.62346 -1.61937 1.23559 100.402 -54.9528 -84.7665 32.3857 -7.73554 12.5097 -5.6004 -26.9451 -19.9178 -2.44442 -0.0755153 -3.91631 -87.1191 -49.9932 82.8204 -2.22965 -6.47506 -54.4923 6.99954 -3.9083 -67.0839 11.6653 -1.02809 -11.9481 25.0805 -4.46867 -1.37371 -12.6679 -3.61364 -2.5937 
-91.4865 89.1037 157.216 -71.3303 -50.7279 -80.3971 -178.111 -6.90623 93.9553 -35.7202 29.7033 10.0214 44.8953 -8.64724 -2.12844 62.241 -2.05375 8.70398 174.649 62.0891 94.3071 -60.4899 -15.0117 1 52.7474 8.20571 11.211 42.8606 -3.25471 5.97904 -1.18809 9.78407 -90.01 7.30643 -2.37667 0.0886748 -4.36241 -2.37048 0.193226 -26.9139 -2.29338 -0.630097 -6.90126 -2.29339 -0.630112 96.8468 -50.5898 -90.4087 35.5853 -5.55766 34.355 -2.79942 -14.437 -22.2632 -1.31231 -0.0185612 -6.10149 -83.8502 -48.9614 87.6252 0.452092 -7.74246 -39.7288 8.88574 -1.86405 -87.6105 14.5353 -0.880381 -9.68669 19.7708 0.15226 -8.7764 -13.8858 2.01617 9.49619 
-114.759 89.4258 179.912 -80.5504 -45.2591 -86.2923 178.923 -5.43509 93.5464 -82.2184 14.7752 5.57444 43.9411 -8.09488 -0.0559868 57.6518 -2.16491 7.72674 173.743 45.4703 93.2011 -29.3169 -9.72145 5.21944 45.0817 12.8398 14.3565 51.6827 -5.44648 1.79261 -1.07063 10.1225 -90.0172 6.62941 -2.14581 0.047857 -5.03978 -2.14163 0.142284 -27.5884 -2.06096 -0.599551 -7.57572 -2.06095 -0.599547 97.7483 -53.2787 -88.7879 35.8353 -5.26201 30.6633 4.34261 3.64161 -26.5188 -0.621891 -0.0274984 -7.1678 -84.6576 -54.063 86.9987 -4.70307 0.13208 -28.6057 2.21443 1.74989 -45.5239 11.2971 -1.08729 -12.6719 15.6442 2.15119 -10.3446 -12.2215 3.86038 15.1496 
-137.775 85.6805 201.511 -84.1529 -40.003 -81.463 175.768 19.7918 100.71 -122.557 9.05146 2.02233 45.7283 -3.73959 9.87008 51.1867 -2.66201 -1.56828 167.517 32.7402 103.726 -52.9442 -16.9797 8.67894 67.577 -1.41358 5.63462 28.1308 0.0696543 0.446823 -0.503407 9.99197 -90.8523 6.87151 -1.37041 -1.61415 -4.7998 -1.44012 -1.55229 -27.3277 -0.822104 -1.95126 -7.31511 -0.822098 -1.95127 100.253 -56.5299 -84.9347 27.601 -6.11964 6.34015 12.9198 16.1943 -34.8288 -0.423411 -0.029136 -6.76359 -84.2482 -61.6981 88.3524 -10.1382 0.975621 -12.868 -2.02914 32.8631 -9.10193 3.50434 -0.30638 -8.88758 26.2025 4.56665 -9.10619 -21.3479 5.66724 13.6239 
-162.892 84.5727 223.88 -83.3925 -33.4275 -80.5841 170.571 48.9111 98.2889 -105.913 8.65694 2.89438 51.4915 -0.532958 14.4783 51.466 -2.45227 1.05256 176.261 8.51602 88.8682 -45.0442 -16.3091 3.41746 72.8731 -2.4786 9.44721 47.873 -4.34273 5.79581 1.03076 8.88127 -90.7412 9.14731 1.72392 -1.6393 -2.52379 1.65009 -1.71356 -25.0646 2.13709 -1.04535 -5.05192 2.13708 -1.04537 103.963 -51.7169 -79.4288 23.8405 -8.07438 -5.4687 6.66903 9.50708 -54.9352 -2.9691 -0.0941983 -9.20659 -86.5375 -57.3336 84.7247 -17.657 3.3241 10.6662 -5.99111 47.1997 -4.31403 2.36629 -0.292686 -9.26627 14.9747 1.8005 -5.08428 -12.7581 2.62582 7.70679 
-189.84 87.3631 246.273 -83.274 -33.5685 -83.4462 175.996 46.6215 92.3826 -40.8484 12.468 2.48545 46.7564 -6.37717 7.722 53.9381 -3.16911 -2.39223 177.715 -15.1895 95.2522 -32.0215 -14.8118 -1.6968 42.5146 13.7562 16.5076 30.1124 0.257897 -2.10947 2.13865 8.58316 -90.6955 9.73324 3.94806 -1.67497 -1.93303 3.87053 -1.84731 -24.5152 4.26862 -0.409032 -4.50252 4.26862 -0.409038 108.336 -37.8781 -70.7477 41.9061 6.75101 2.55756 -10.45 0.148597 -90.5175 9.8901 1.34057 5.61788 -88.4836 -55.873 81.7895 -16.5682 8.67063 16.2201 1.27542 33.7001 -18.2112 0.662373 -0.234089 -9.74698 13.8104 -0.961453 12.2461 -15.5132 -2.95008 -10.676 
-214.737 85.8654 267.374 -90.8564 -34.6442 -85.4213 -173.527 37.5475 87.985 -32.3797 10.0844 -2.99575 49.9861 -5.78238 12.9115 30.3369 0.743873 -8.75465 176.078 -6.40324 91.0618 -79.6847 -16.228 -3.24466 45.9624 9.83161 8.7597 22.7951 2.01682 -3.5212 2.99022 10.1513 -91.8204 6.64342 5.19753 -3.7832 -5.02331 5.02614 -4.00837 -27.6257 6.09344 -2.04289 -7.61307 6.09346 -2.04289 113.369 -32.5603 -60.1291 46.2581 15.4124 -6.74107 -16.0567 -4.30009 -75.8327 10.257 1.14055 7.13361 -93.6108 -64.1251 76.4805 -4.84419 3.03909 -4.13619 4.58828 18.9667 -25.3267 0.108286 -0.251157 -11.7788 21.1546 1.36059 38.6748 -19.4515 -7.26096 -31.9605 
-238.379 81.2756 286.93 -99.4599 -46.8561 -101.268 -174.483 20.9562 72.4371 -58.2178 20.6868 -1.79132 62.9256 13.3773 33.1852 52.9314 -2.45305 2.27273 175.457 23.1692 80.3977 -108.238 -10.4194 -3.928 50.3942 4.89896 -0.39428 44.4485 -4.09175 -3.90819 1.46365 12.1563 -92.6347 2.5826 1.8994 -5.15104 -9.09768 1.6712 -5.22937 -31.5814 3.35835 -4.34447 -11.5687 3.35834 -4.34449 112.98 -19.1813 -55.0051 61.0254 20.78 -19.3306 -19.8452 -21.6601 -39.298 4.74983 0.407788 4.08128 -101.67 -77.4328 70.0136 -6.77585 -12.0419 -48.1352 5.8674 16.9161 -20.5213 4.86817 -0.589086 -11.8816 31.7377 9.01892 67.437 -27.2061 -11.5568 -47.7782 
-261.154 83.162 305.001 -124.228 -51.308 -127.292 179.298 -8.95455 74.4447 -55.7243 24.7301 2.5436 61.0836 7.35963 17.9584 62.1194 -2.86602 5.2114 179.974 34.151 70.1262 -79.9473 -13.2152 -4.78907 53.7887 6.72707 5.95592 59.2641 -7.62301 -1.36492 0.152686 12.897 -94.8455 0.904551 -1.52252 -9.42329 -10.7996 -1.93343 -9.34822 -33.0635 1.36506 -9.44717 -13.0508 1.36507 -9.44717 101.889 26.2769 -54.3025 93.1682 29.9526 -9.74405 -29.1566 -41.4315 -8.27623 8.98072 -0.648369 -14.1922 -112.698 -82.6719 59.7418 -17.4723 -0.957652 -61.4317 9.21234 9.58485 -39.6854 3.86316 -0.707996 -15.8285 16.6829 -7.14438 95.8144 -8.17402 -35.0094 -52.5022 
-285.869 83.7328 324.29 -130.888 -50.1972 -144.222 172.181 -21.1233 69.5004 -64.714 18.1142 3.734 56.1287 0.328669 11.659 56.2637 -1.73556 6.73057 173.958 27.2981 59.8207 -15.6449 15.7147 -3.48139 26.4318 14.5783 44.5379 -3.09826 5.95031 5.20776 2.03961 11.086 -99.2074 4.47595 0.32252 -18.0454 -7.3166 -0.460629 -18.0425 -28.9371 5.65777 -17.168 -8.92448 5.65776 -17.168 153.956 81.867 -146.563 95.6508 50.7389 34.6798 -36.5076 44.0923 0.490959 39.9924 -9.72176 -26.5276 -132 -61.019 27.5699 -52.7981 17.7245 -51.4594 13.954 4.98627 -81.6766 0.017135 -0.372723 -17.2095 11.911 -49.9756 110.709 -22.9318 -61.3859 -65.2668 
-310.557 72.9185 344.726 -121.691 -51.4843 -148.648 174.373 -13.2255 64.9153 -92.0581 6.86655 1.26705 48.2457 -9.63173 5.91705 104.249 -14.5693 -8.90117 -173.394 44.4972 51.2815 6.69411 54.4141 -17.3199 3.93243 9.89167 67.6395 -33.5303 26.8558 -11.413 2.3938 10.5043 -99.3999 5.56511 0.886569 -18.4954 -6.23621 0.0858146 -18.5157 -27.815 6.32031 -17.4394 -7.80236 6.32032 -17.4395 173.551 63.6409 160.683 106.834 55.2156 37.5231 129.916 58.691 -179.954 73.5738 34.1003 39.09 -123.969 -46.2789 28.6863 -86.5522 10.3646 -38.3802 7.45073 1.97785 -93.9613 1.70619 -0.0524663 -3.30109 17.3825 -55.372 122.84 -44.6548 -60.8205 -82.1544 
-333.048 59.6353 364.477 -108.71 -51.084 -146.342 165.63 -17.9911 57.985 -100.142 12.5621 2.47887 29.2168 -27.5855 -13.1291 113.547 -38.3091 -38.1224 -152.355 62.0909 38.9057 5.05431 54.4323 -11.3484 4.24364 10.4468 58.0073 -31.0512 31.419 -19.1505 2.42739 10.7988 -98.4967 5.07392 1.3607 -16.7044 -6.70333 0.634623 -16.7465 -28.4755 6.25841 -15.5769 -8.46281 6.25841 -15.5769 172.611 58.7162 152.441 66.8409 66.1891 72.1984 97.9091 58.0634 -170.218 74.0613 47.9629 55.7065 -118.645 -39.8733 31.5812 -99.6385 24.4293 -38.6091 19.2036 11.888 -40.4485 2.92998 -0.837109 -16.0407 16.5766 -55.0378 123.777 -48.6981 -52.8289 -94.6173 
